<?xml version="1.0" standalone="no"?>
<!DOCTYPE svg PUBLIC "-//W3C//DTD SVG 20010904//EN"
 "http://www.w3.org/TR/2001/REC-SVG-20010904/DTD/svg10.dtd">
<svg version="1.0" xmlns="http://www.w3.org/2000/svg"
 width="100.000000pt" height="100.000000pt" viewBox="0 0 100.000000 100.000000"
 preserveAspectRatio="xMidYMid meet">
<metadata>
Created by potrace 1.11, written by Peter Selinger 2001-2013
</metadata>
<g transform="translate(0.000000,100.000000) scale(0.100000,-0.100000)"
fill="#000000" stroke="none">
<path d="M169 741 l-29 -29 0 -149 c0 -199 11 -271 45 -300 30 -27 71 -29 103
-7 31 22 18 36 -16 17 -37 -21 -80 -11 -92 23 -15 38 -30 322 -20 374 11 58
41 84 89 75 31 -6 33 -5 22 9 -22 26 -69 20 -102 -13z"/>
<path d="M510 720 c-6 -21 -21 -99 -34 -172 -14 -73 -31 -164 -40 -201 -18
-78 -20 -97 -7 -97 5 0 15 26 23 58 15 62 30 72 81 53 24 -10 27 -15 27 -62 0
-36 4 -49 13 -46 9 3 11 30 9 98 -3 100 -18 296 -28 367 -8 54 -30 55 -44 2z
m44 -242 l7 -98 -33 0 c-60 0 -62 6 -40 111 11 52 23 117 27 144 15 108 23 77
39 -157z"/>
<path d="M765 750 c-3 -5 0 -10 8 -10 8 0 17 -6 20 -13 3 -7 5 -113 6 -235 1
-193 0 -222 -14 -222 -8 0 -15 -4 -15 -10 0 -5 23 -10 50 -10 28 0 50 5 50 10
0 6 -8 10 -19 10 -17 0 -19 13 -25 143 -3 78 -9 184 -13 235 -6 89 -5 92 16
92 11 0 21 5 21 10 0 6 -18 10 -39 10 -22 0 -43 -4 -46 -10z"/>
<path d="M335 261 c-6 -11 9 -23 19 -14 9 9 7 23 -3 23 -6 0 -12 -4 -16 -9z"/>
<path d="M635 261 c-6 -11 9 -23 19 -14 9 9 7 23 -3 23 -6 0 -12 -4 -16 -9z"/>
<path d="M895 261 c-6 -11 9 -23 19 -14 9 9 7 23 -3 23 -6 0 -12 -4 -16 -9z"/>
</g>
</svg>
